<?xml version="1.0" standalone="no"?>
<!DOCTYPE svg PUBLIC "-//W3C//DTD SVG 20010904//EN"
 "http://www.w3.org/TR/2001/REC-SVG-20010904/DTD/svg10.dtd">
<svg version="1.0" xmlns="http://www.w3.org/2000/svg"
 width="2816.000000pt" height="1536.000000pt" viewBox="0 0 2816.000000 1536.000000"
 preserveAspectRatio="xMidYMid meet">

<g transform="translate(0.000000,1536.000000) scale(0.100000,-0.100000)"
fill="#000000" stroke="none">
<path d="M14113 11402 c-12 -26 -73 -132 -134 -237 -62 -104 -145 -246 -184
-315 -132 -231 -120 -217 -189 -230 -98 -19 -244 -57 -339 -89 l-88 -29 -121
146 c-224 270 -289 342 -307 342 -10 0 -108 -45 -217 -99 -209 -104 -490 -281
-520 -327 -23 -35 -12 -90 75 -374 38 -124 71 -233 72 -242 3 -11 -45 -66
-133 -155 l-137 -139 -278 93 c-152 51 -286 93 -298 93 -26 0 -154 -159 -237
-292 -68 -109 -193 -367 -218 -447 -18 -57 -19 -67 -6 -86 8 -12 77 -80 152
-151 76 -71 172 -161 213 -201 l75 -72 -31 -108 c-27 -93 -39 -146 -59 -249
-3 -17 -18 -23 -101 -39 -230 -43 -488 -105 -499 -120 -19 -26 -45 -294 -45
-476 -1 -179 26 -458 44 -471 6 -3 59 -18 118 -34 59 -15 106 -31 103 -35 -3
-5 7 -11 21 -15 14 -3 25 -10 25 -16 0 -5 5 -6 10 -3 6 4 16 3 23 -2 16 -13
173 -37 186 -29 17 11 90 -13 99 -32 5 -9 31 -93 57 -186 l47 -170 -98 -90
c-55 -50 -154 -144 -221 -209 l-122 -120 6 -51 c4 -35 31 -102 84 -211 89
-185 169 -319 272 -460 l74 -100 45 0 c25 0 44 3 41 8 -2 4 0 7 6 7 5 0 11 -4
13 -9 2 -6 35 -1 77 10 88 24 94 27 87 44 -3 10 20 22 77 41 45 15 88 27 95
27 6 0 12 3 12 7 0 4 7 7 15 7 8 0 15 -4 15 -9 0 -5 19 -6 43 -2 65 11 89 6
121 -24 28 -25 29 -25 11 -2 -21 26 165 -141 199 -179 23 -25 20 -38 -46 -251
-22 -69 -55 -185 -74 -258 -42 -158 -49 -140 91 -237 145 -102 238 -156 440
-258 l190 -97 69 73 c38 39 126 137 195 216 69 80 137 157 151 172 l25 27 80
-29 c44 -16 67 -27 50 -23 -29 5 -29 5 -10 -10 11 -8 34 -15 50 -16 23 0 27 3
15 10 -16 11 -3 9 130 -19 l75 -16 8 -50 c16 -100 120 -541 133 -567 15 -29
30 -34 145 -43 192 -16 679 1 703 25 10 10 105 433 125 555 l12 70 177 45
c190 48 215 53 205 37 -4 -6 4 -8 21 -5 23 5 40 -11 165 -151 77 -86 171 -187
210 -226 l71 -70 113 57 c231 115 637 371 637 402 0 18 -71 261 -125 426 -69
214 -72 190 41 290 52 47 116 106 140 132 24 26 44 44 44 40 0 -5 -6 -14 -12
-20 -10 -10 -6 -12 17 -11 17 1 59 -8 94 -20 69 -23 94 -27 71 -10 -11 8 -9 9
10 3 41 -11 70 -23 70 -29 0 -2 -12 0 -26 5 -32 12 -34 12 -34 0 0 -5 3 -9 8
-8 15 4 72 -14 72 -23 0 -5 8 -9 18 -9 10 0 22 -3 26 -7 3 -4 12 -8 19 -9 7
-1 40 -11 74 -23 68 -23 98 -27 88 -11 -3 6 -1 10 4 10 6 0 11 -3 11 -7 0 -5
21 -8 47 -8 l48 0 58 85 c88 129 212 338 294 497 64 126 73 149 73 197 l0 54
-157 149 c-87 81 -184 173 -216 203 l-59 56 42 159 c52 199 58 214 70 195 8
-13 10 -13 10 1 0 18 41 34 50 20 7 -11 44 -5 48 9 2 5 7 8 11 6 5 -4 30 0
130 20 14 3 29 8 35 12 6 4 16 7 21 7 6 1 9 7 7 14 -2 8 3 11 12 8 8 -3 16 -3
18 1 3 7 144 51 209 66 29 6 29 6 54 186 32 235 7 731 -39 769 -6 5 -70 23
-141 40 -359 84 -429 101 -435 108 -4 5 -13 37 -19 73 -7 36 -26 114 -42 174
-16 60 -29 115 -27 122 2 7 91 95 198 197 107 101 204 200 215 220 18 34 18
38 2 89 -19 61 -151 334 -204 423 -60 99 -225 325 -238 325 -14 0 -336 -108
-486 -163 l-97 -35 -144 141 -144 142 73 230 c77 242 107 363 97 389 -6 16
-67 62 -219 163 -93 62 -471 259 -515 268 -14 3 -32 -1 -40 -8 -17 -14 -136
-155 -230 -272 -35 -44 -88 -108 -117 -142 l-53 -61 -50 19 c-74 28 -306 87
-371 95 -31 4 -61 9 -67 13 -5 3 -61 96 -124 206 -134 234 -347 597 -357 607
-3 4 -16 -14 -28 -40z m116 -284 c99 -170 301 -513 497 -843 78 -132 141 -241
140 -242 0 -1 -36 8 -80 20 -55 15 -73 23 -60 28 21 7 -115 52 -196 64 -73 12
-38 -6 73 -37 114 -31 104 -31 -60 3 -62 12 -115 20 -118 18 -2 -3 -2 -232 2
-510 l6 -505 97 -17 c290 -53 603 -213 802 -410 185 -183 330 -463 389 -750
24 -120 34 -319 21 -432 l-9 -80 -2 100 c-2 55 -4 114 -6 130 -9 77 -18 125
-25 125 -4 0 -10 -80 -13 -177 -4 -141 -11 -200 -30 -283 -68 -286 -187 -500
-397 -711 -212 -215 -442 -338 -758 -408 -68 -15 -123 -30 -122 -34 0 -4 0
-234 0 -512 0 -278 3 -505 8 -505 4 0 7 195 7 433 0 237 4 458 8 490 20 137
27 24 27 -424 0 -447 1 -469 18 -469 41 0 245 42 363 74 441 121 785 332 1137
695 81 83 82 84 23 15 -141 -166 -467 -443 -603 -513 -25 -13 -38 -31 -23 -31
9 0 69 32 75 39 9 11 110 81 117 81 13 0 171 112 233 165 135 117 264 258 394
433 68 90 87 112 66 72 -32 -61 -181 -241 -290 -354 -294 -302 -630 -515
-1013 -641 -215 -71 -564 -139 -572 -111 -2 6 -6 255 -8 554 -5 465 -4 542 9
542 8 0 14 5 14 10 0 6 -4 10 -10 10 -5 0 -10 4 -10 8 0 8 25 12 95 13 16 1
35 9 42 18 10 14 11 13 7 -9 -2 -14 -2 -20 1 -14 3 6 18 9 34 6 19 -3 30 1 34
12 4 10 1 13 -8 9 -8 -3 -17 2 -21 10 -6 17 -43 11 -59 -9 -12 -15 -53 -1 -61
21 -5 13 -9 13 -22 3 -13 -11 -14 -11 -7 2 5 8 20 23 33 34 13 10 21 25 18 33
-3 8 -2 11 3 8 5 -3 12 -1 16 5 3 5 1 10 -6 10 -7 0 -9 3 -6 7 4 3 3 11 -3 18
-7 8 6 16 43 29 70 25 168 68 164 73 -2 2 -30 -8 -61 -22 -65 -29 -190 -65
-223 -65 -22 0 -23 4 -23 76 0 45 -4 73 -10 69 -5 -3 -7 -12 -4 -20 4 -10 0
-12 -15 -8 -12 3 -18 10 -14 17 11 17 12 37 2 30 -5 -3 -10 3 -10 13 -1 17 -2
17 -6 1 -2 -10 -9 -18 -15 -18 -5 0 -8 7 -5 14 4 10 1 13 -9 9 -7 -3 -14 -11
-14 -19 0 -19 -19 -18 -26 1 -9 21 -27 19 -20 -3 6 -16 5 -16 -6 0 -7 9 -18
25 -25 35 -9 14 -12 -48 -14 -292 -1 -275 -13 -620 -17 -540 -4 60 -13 77 -38
72 -13 -2 -24 0 -24 6 0 5 -15 7 -35 4 -21 -3 -33 -2 -30 4 4 5 2 9 -4 9 -5 0
-13 -4 -16 -10 -15 -24 -35 -9 -37 28 -1 25 -3 16 -8 -28 -4 -36 -8 -226 -9
-422 l-1 -358 -27 5 c-16 3 -73 12 -128 20 -236 37 -517 131 -786 264 -118 59
-175 95 -314 201 -327 249 -521 461 -705 775 -41 70 -5 23 65 -85 90 -140 239
-324 350 -435 84 -84 332 -278 456 -358 118 -75 476 -237 525 -237 29 0 -4 28
-67 56 -33 15 -58 28 -56 30 1 2 72 -19 156 -47 133 -43 310 -85 434 -102 l37
-6 -5 82 c-3 45 -7 257 -9 471 -3 371 -4 390 -22 397 -10 5 0 5 24 2 41 -5 42
-5 42 24 0 28 -1 29 -92 47 -324 64 -612 222 -826 451 -110 118 -207 276 -281
458 -79 194 -96 289 -96 527 1 115 -2 169 -7 141 -4 -24 -12 -49 -19 -57 -6
-7 -8 -18 -4 -24 3 -5 1 -10 -4 -10 -7 0 -11 -51 -12 -147 -1 -134 -2 -142
-11 -83 -12 84 -3 331 16 440 69 391 308 762 628 976 154 103 400 202 592 240
l89 17 -7 90 c-3 50 -6 281 -6 515 0 400 -1 424 -17 417 -10 -3 -74 -19 -143
-35 -69 -16 -158 -40 -199 -54 -79 -27 -94 -27 -69 1 9 10 53 83 98 163 46 80
135 233 199 340 65 107 182 309 261 447 80 139 148 253 151 253 3 0 43 -64 88
-142z m-1402 -291 c48 -57 137 -162 196 -235 60 -72 115 -136 122 -142 10 -9
37 -4 107 18 84 27 280 82 293 82 3 0 -9 -22 -25 -49 l-30 -49 -173 -57 c-94
-32 -177 -58 -183 -59 -11 -1 -214 233 -319 370 -38 49 -74 95 -80 102 -18 20
-221 -82 -466 -234 l-86 -54 43 -153 c24 -85 64 -219 89 -300 25 -80 45 -153
45 -161 0 -7 -51 -59 -112 -114 -62 -56 -156 -148 -208 -206 -52 -58 -98 -106
-102 -106 -6 0 -525 177 -569 195 -33 13 -334 -503 -327 -559 3 -17 136 -143
383 -362 l69 -61 -42 -129 c-23 -71 -61 -205 -83 -299 -23 -93 -43 -171 -44
-173 -2 -2 -132 -29 -291 -60 l-288 -57 -9 -30 c-11 -40 -14 -427 -4 -538 7
-65 13 -89 25 -96 16 -8 357 -85 500 -112 49 -9 66 -17 72 -33 5 -12 27 -98
49 -192 23 -95 57 -218 76 -275 33 -98 34 -103 17 -122 -9 -11 -105 -100 -212
-197 -107 -97 -203 -186 -212 -196 -16 -19 -16 -22 6 -69 63 -136 285 -505
304 -505 4 0 135 42 291 93 l285 93 216 -218 216 -219 -98 -291 c-94 -280 -97
-292 -81 -311 30 -33 201 -140 362 -227 119 -65 157 -81 170 -73 9 5 42 41 74
79 335 399 321 384 347 380 14 -2 64 -18 112 -34 48 -17 166 -48 262 -68 97
-21 180 -40 184 -43 7 -5 60 -225 124 -523 18 -80 25 -97 42 -102 71 -20 561
-14 581 6 6 6 92 385 120 530 l18 87 56 11 c123 25 311 74 408 107 57 19 108
31 113 28 6 -4 77 -84 158 -178 177 -207 251 -287 263 -287 11 0 254 129 324
173 28 17 87 60 131 95 l81 65 -31 96 c-17 53 -60 184 -96 291 l-65 194 186
186 c102 102 198 200 212 217 l26 33 273 -94 c150 -51 280 -96 288 -100 15 -6
85 90 181 249 58 96 149 279 149 299 0 9 6 16 12 16 7 0 -12 21 -42 47 -56 49
-126 114 -307 284 l-102 97 33 100 c19 54 53 180 76 278 23 99 45 186 49 193
4 8 34 21 67 27 297 62 505 109 514 114 27 16 36 451 14 617 l-6 42 -72 16
c-60 14 -505 105 -512 105 -1 0 -8 26 -14 58 -25 124 -72 303 -112 422 l-41
124 69 65 c38 35 140 129 227 208 86 79 157 149 157 154 0 12 -80 172 -138
274 -72 128 -176 285 -189 285 -6 0 -76 -23 -155 -51 -79 -28 -208 -73 -287
-100 l-145 -49 -29 38 c-16 20 -110 117 -209 215 l-180 178 41 132 c23 73 64
204 91 292 27 88 50 167 50 176 0 31 -495 307 -534 297 -16 -4 -368 -418 -393
-463 -7 -11 -40 -4 -188 44 l-180 58 -37 48 c-20 27 -36 50 -34 52 2 3 83 -19
275 -74 68 -19 126 -31 131 -26 4 4 96 115 204 246 108 130 200 237 204 237 4
0 105 -51 224 -114 224 -118 428 -247 428 -272 0 -21 -63 -243 -127 -444 l-55
-174 54 -45 c29 -25 111 -102 182 -172 109 -109 132 -126 148 -118 31 17 539
189 557 189 32 0 183 -235 294 -456 75 -150 97 -200 97 -223 0 -17 -142 -160
-339 -343 l-103 -96 26 -78 c31 -96 82 -292 91 -355 4 -25 10 -50 13 -56 4 -5
45 -17 92 -26 47 -9 178 -38 292 -63 l207 -47 6 -46 c25 -193 31 -426 15 -579
-19 -182 -19 -182 -43 -182 -12 0 -94 -18 -182 -40 -88 -22 -167 -40 -175 -39
-8 0 68 22 170 48 209 53 199 45 197 156 0 33 -2 44 -4 25 -11 -115 -12 -118
-46 -125 -18 -4 -77 -20 -132 -35 -55 -15 -165 -42 -245 -60 -148 -32 -176
-46 -164 -82 8 -26 -11 -110 -68 -298 l-50 -164 69 -66 c37 -36 139 -132 226
-214 87 -82 156 -151 153 -153 -9 -9 -48 25 -246 210 -190 179 -250 229 -250
210 0 -11 50 -59 67 -64 7 -2 34 -24 60 -49 26 -25 69 -63 95 -84 55 -44 213
-216 180 -195 -12 8 -22 17 -22 20 0 4 -7 10 -16 13 -18 7 -11 -8 19 -42 31
-33 30 -56 -2 -127 -50 -109 -204 -360 -278 -452 l-33 -42 -286 97 -286 97
-56 -65 c-70 -82 -265 -278 -312 -314 -20 -15 -26 -24 -15 -20 16 6 18 5 8 -7
-7 -7 -13 -22 -12 -33 1 -21 1 -21 7 -1 4 11 30 40 57 65 28 24 96 89 153 144
56 55 102 97 102 92 0 -5 -59 -69 -132 -142 -72 -74 -130 -136 -127 -138 2 -3
85 72 184 165 l180 171 -177 -174 c-119 -116 -178 -181 -178 -195 0 -11 32
-121 71 -244 108 -341 122 -393 85 -321 -27 53 -171 507 -179 567 l-4 30 -2
-31 c-1 -32 54 -242 114 -434 20 -62 34 -114 32 -116 -4 -5 -93 267 -138 425
-18 63 -35 109 -37 102 -4 -13 69 -262 123 -419 19 -56 35 -104 35 -107 0 -8
-138 -114 -207 -159 -39 -25 -136 -79 -215 -121 l-145 -75 -69 77 c-38 42
-102 115 -142 162 -41 47 -77 86 -80 86 -16 1 -31 16 -27 28 2 7 -19 38 -48
71 l-53 58 -42 -12 c-23 -7 -39 -17 -35 -23 3 -6 1 -7 -5 -3 -7 4 -53 -6 -104
-22 -51 -16 -151 -42 -223 -58 -71 -15 -135 -32 -142 -38 -7 -6 -40 -144 -73
-306 -34 -162 -66 -299 -71 -304 -16 -17 -319 -30 -473 -20 -80 5 -147 12
-150 15 -3 3 -19 65 -35 139 -63 284 -109 481 -113 485 -2 3 -78 20 -169 40
-90 19 -215 51 -277 71 -97 32 -115 35 -126 23 -7 -8 -78 -93 -158 -189 -80
-96 -168 -199 -194 -229 l-49 -53 -193 106 c-176 96 -265 153 -345 218 -28 23
-28 23 -13 68 8 25 31 99 51 165 21 66 45 138 55 160 9 22 27 76 39 120 12 44
26 84 31 89 4 4 -86 102 -201 217 l-209 210 -117 -37 c-65 -19 -192 -60 -283
-90 -91 -30 -171 -54 -178 -54 -16 0 -139 188 -232 355 -72 129 -90 159 -75
120 4 -11 8 -26 8 -32 0 -7 4 -13 8 -13 5 0 6 -8 3 -17 -5 -15 -4 -16 6 -3 9
12 10 10 5 -10 -4 -17 -3 -21 3 -12 7 11 10 11 15 -3 4 -9 3 -13 -3 -10 -13 8
-13 -1 1 -26 5 -11 13 -18 17 -15 4 2 8 -7 8 -20 1 -13 0 -24 -2 -24 -7 0 -96
184 -120 247 l-23 62 147 142 c132 128 135 131 23 28 -68 -63 -138 -126 -156
-141 l-33 -28 35 -82 c19 -46 50 -114 69 -152 52 -105 35 -88 -26 24 -48 90
-103 212 -97 215 1 1 76 71 167 156 91 85 193 179 227 210 l62 55 -39 110
c-42 119 -104 360 -96 372 12 20 -18 33 -144 62 -74 17 -202 48 -285 70 -82
21 -152 37 -154 34 -9 -9 10 -16 86 -34 151 -34 257 -64 246 -67 -7 -3 -64 9
-127 26 -63 17 -139 34 -168 39 l-53 7 -8 75 c-11 106 -14 495 -4 622 l9 106
71 16 c40 9 176 37 303 63 l231 46 13 71 c16 89 43 193 81 314 17 51 32 102
34 112 2 12 -24 44 -78 97 -88 84 -286 264 -328 298 -34 27 15 -20 224 -214
97 -90 177 -167 177 -169 0 -3 -12 5 -27 19 -16 14 -77 70 -138 124 -150 134
-285 267 -285 280 0 24 131 298 188 393 62 104 197 292 210 292 4 0 136 -44
293 -97 l286 -98 85 90 c47 50 126 125 176 169 l90 78 -28 107 c-16 58 -51
176 -78 261 -50 159 -77 259 -71 264 2 2 65 44 139 92 108 71 481 277 512 283
4 0 47 -45 95 -102z m801 -1088 l-3 -42 -135 -43 c-234 -76 -464 -200 -650
-351 -103 -83 -284 -271 -358 -371 -80 -109 -181 -277 -242 -405 -52 -109
-124 -314 -134 -382 -5 -36 -4 -35 13 15 11 30 19 53 20 50 1 -3 -10 -55 -24
-115 -36 -159 -55 -318 -55 -465 0 -590 264 -1183 694 -1559 134 -117 165
-146 141 -130 -18 13 -19 12 -7 -3 8 -9 19 -15 26 -12 7 3 19 -3 27 -12 12
-15 12 -17 0 -9 -9 5 -12 4 -7 -3 4 -6 13 -9 20 -6 8 3 17 0 22 -7 5 -8 3 -10
-7 -5 -8 4 -5 0 6 -9 32 -27 65 -40 35 -15 l-25 22 32 -18 c18 -10 30 -21 27
-25 -2 -4 1 -11 7 -15 8 -4 9 -3 5 4 -13 22 9 12 144 -62 119 -65 349 -166
377 -166 19 0 30 -24 37 -80 6 -54 6 -55 -11 -33 -12 14 -74 42 -173 78 -359
131 -585 278 -847 549 -87 89 -105 104 -69 58 97 -123 285 -289 461 -405 96
-62 116 -78 75 -57 -122 63 -422 300 -516 407 -166 190 -326 444 -419 663 -50
119 -113 352 -142 525 -23 138 -26 556 -5 675 82 457 287 867 592 1184 260
271 584 470 945 581 61 19 114 34 118 35 5 0 7 -19 5 -41z m1177 3 c99 -30
302 -118 415 -179 368 -198 687 -534 884 -930 173 -348 244 -670 233 -1063
-14 -506 -178 -948 -495 -1337 -86 -106 -243 -263 -333 -335 -150 -120 -401
-265 -582 -337 -94 -37 -196 -71 -216 -71 -32 0 7 20 108 55 115 40 244 96
237 102 -2 3 -18 -3 -35 -12 -49 -25 -262 -103 -305 -110 -36 -7 -38 -6 -31
14 4 12 2 21 -4 21 -6 0 -11 -20 -11 -44 0 -25 -4 -48 -10 -51 -12 -7 -12 5
-4 68 l6 45 92 33 c485 172 860 456 1125 854 162 244 290 583 332 886 18 130
16 447 -5 578 -9 57 -14 107 -11 109 3 3 5 -5 5 -18 0 -13 3 -20 6 -17 17 16
-48 261 -110 415 -255 635 -733 1081 -1338 1248 l-98 27 0 43 0 44 33 -7 c17
-3 68 -17 112 -31z m-2135 -56 c0 -2 -8 -10 -17 -17 -16 -13 -17 -12 -4 4 13
16 21 21 21 13z m958 -11 c-8 -8 -171 -55 -176 -51 -2 3 31 16 74 30 77 24
113 31 102 21z m1067 -13 c-3 -3 -11 0 -18 7 -9 10 -8 11 6 5 10 -3 15 -9 12
-12z m-2065 -6 c0 -2 -8 -10 -17 -17 -16 -13 -17 -12 -4 4 13 16 21 21 21 13z
m2107 -2 c-3 -3 -12 -4 -19 -1 -8 3 -5 6 6 6 11 1 17 -2 13 -5z m1150 -191
c55 -54 68 -69 29 -33 -39 36 -110 99 -158 140 -49 40 -88 75 -88 77 0 12 132
-100 217 -184z m-3347 120 c-30 -26 -102 -92 -160 -147 -66 -63 -81 -75 -40
-32 65 68 239 226 250 226 3 0 -20 -22 -50 -47z m800 -13 c-8 -5 -19 -10 -25
-10 -5 0 -3 5 5 10 8 5 20 10 25 10 6 0 3 -5 -5 -10z m441 -190 l1 -195 -83
-17 c-302 -63 -608 -238 -825 -471 -135 -146 -264 -356 -328 -536 -81 -225
-109 -581 -67 -847 27 -168 71 -303 147 -455 104 -209 244 -385 398 -504 42
-32 74 -61 71 -65 -7 -12 155 -117 267 -172 116 -58 229 -94 213 -68 -3 6 -5
10 -3 10 8 -1 200 -59 203 -62 2 -1 5 -88 7 -192 l3 -188 -45 6 c-69 10 -364
113 -465 163 -264 131 -503 308 -645 478 -165 196 -330 480 -395 680 -36 111
-82 347 -96 490 -40 432 102 955 362 1325 49 69 388 418 410 421 5 1 13 2 18
3 5 0 13 5 18 10 5 6 2 6 -7 1 -13 -8 -13 -7 -1 9 8 9 21 14 30 11 8 -3 12 -3
8 1 -8 8 11 34 25 34 5 0 6 -5 2 -11 -4 -7 22 8 56 31 95 64 334 168 558 242
44 15 59 24 50 30 -9 6 -3 7 15 3 19 -4 26 -2 22 5 -3 5 1 10 9 10 9 0 16 -4
16 -10 0 -5 7 -7 16 -3 12 4 13 8 3 13 -8 6 -6 9 7 12 10 2 20 4 21 3 1 0 3
-88 4 -195z m814 174 c28 -4 44 -9 36 -12 -8 -3 21 -18 65 -33 43 -16 93 -35
109 -43 44 -21 97 -43 124 -51 27 -8 260 -127 335 -170 28 -16 46 -23 42 -14
-4 8 2 2 14 -14 12 -15 26 -24 31 -21 19 11 173 -121 162 -139 -3 -5 -1 -7 4
-4 11 7 126 -114 214 -223 57 -71 188 -293 249 -423 91 -193 151 -432 171
-679 22 -261 -18 -559 -107 -810 -32 -91 -138 -302 -204 -409 -255 -411 -713
-742 -1199 -865 -146 -37 -132 -55 -129 168 l3 192 35 8 c501 122 907 432
1117 853 75 149 131 337 158 528 56 394 -60 869 -287 1179 -166 225 -422 417
-693 519 -108 41 -280 89 -316 89 -18 0 -19 11 -19 196 0 181 1 195 18 190 9
-3 40 -8 67 -12z m425 -4 c19 -11 31 -19 25 -19 -5 0 -26 8 -45 19 -19 11 -30
19 -25 19 6 0 26 -8 45 -19z m140 -76 c0 -2 -9 0 -20 6 -11 6 -20 13 -20 16 0
2 9 0 20 -6 11 -6 20 -13 20 -16z m70 -40 c0 -2 -9 0 -20 6 -11 6 -20 13 -20
16 0 2 9 0 20 -6 11 -6 20 -13 20 -16z m-2165 -2 c-6 -5 -64 -46 -130 -93
-269 -190 -463 -416 -636 -742 -55 -104 -67 -111 -15 -9 149 296 349 541 591
727 39 30 97 70 130 90 56 34 80 44 60 27z m2269 -61 c38 -25 77 -51 86 -56
25 -15 173 -155 165 -155 -4 0 -40 29 -79 64 -39 35 -105 88 -146 117 -42 30
-87 62 -100 72 -42 30 1 6 74 -42z m-2175 -26 c-6 -5 -116 -77 -139 -89 -43
-25 15 20 71 55 59 36 80 47 68 34z m-909 -48 c0 -2 -10 -12 -22 -23 l-23 -19
19 23 c18 21 26 27 26 19z m3447 -250 c156 -177 249 -320 345 -532 47 -104
114 -292 106 -300 -2 -3 -14 28 -27 68 -57 179 -174 418 -278 564 -46 66 -134
176 -204 256 -22 26 -39 47 -37 47 3 0 45 -46 95 -103z m-3687 -77 c-6 -11
-13 -20 -16 -20 -2 0 0 9 6 20 6 11 13 20 16 20 2 0 0 -9 -6 -20z m211 -541
c-11 -24 -20 -41 -20 -37 -1 12 31 89 35 85 3 -2 -4 -24 -15 -48z m-30 -76
c-12 -20 -14 -14 -5 12 4 9 9 14 11 11 3 -2 0 -13 -6 -23z m3994 -272 c3 -20
-4 -4 -15 34 -11 39 -19 75 -19 80 1 16 28 -75 34 -114z m-458 -698 c-3 -10
-5 -4 -5 12 0 17 2 24 5 18 2 -7 2 -21 0 -30z m-3160 -40 c-3 -10 -5 -4 -5 12
0 17 2 24 5 18 2 -7 2 -21 0 -30z m-1520 -189 c-3 -3 -12 -4 -19 -1 -8 3 -5 6
6 6 11 1 17 -2 13 -5z m6180 -10 c-3 -3 -12 -4 -19 -1 -8 3 -5 6 6 6 11 1 17
-2 13 -5z m-40 -10 c-3 -3 -12 -4 -19 -1 -8 3 -5 6 6 6 11 1 17 -2 13 -5z
m-6010 -10 c-3 -3 -12 -4 -19 -1 -8 3 -5 6 6 6 11 1 17 -2 13 -5z m5920 -10
c-3 -3 -12 -4 -19 -1 -8 3 -5 6 6 6 11 1 17 -2 13 -5z m-1517 -194 c-6 -11
-13 -20 -16 -20 -2 0 0 9 6 20 6 11 13 20 16 20 2 0 0 -9 -6 -20z m-40 -70
c-6 -11 -13 -20 -16 -20 -2 0 0 9 6 20 6 11 13 20 16 20 2 0 0 -9 -6 -20z
m-1245 -280 c3 -5 1 -10 -4 -10 -6 0 -11 5 -11 10 0 6 2 10 4 10 3 0 8 -4 11
-10z m2055 -160 c-11 -22 -23 -40 -25 -40 -3 0 4 18 15 40 11 22 23 40 25 40
3 0 -4 -18 -15 -40z m-52 -88 c-34 -57 -63 -94 -37 -47 32 57 51 85 56 85 2 0
-6 -17 -19 -38z m-3173 -42 c3 -6 -1 -7 -9 -4 -18 7 -21 14 -7 14 6 0 13 -4
16 -10z m1085 0 c0 -5 -3 -10 -7 -11 -5 0 -17 -2 -28 -4 -20 -4 -20 -4 -1 11
23 16 36 18 36 4z m190 -25 c0 -7 -30 -13 -34 -7 -3 4 4 9 15 9 10 1 19 0 19
-2z m2900 -156 c-53 -125 -311 -558 -338 -567 -6 -2 16 36 48 85 102 153 216
350 265 458 54 118 73 136 25 24z m-18 -92 c-52 -109 -112 -213 -112 -196 0 3
20 40 44 83 24 43 61 115 82 161 21 47 40 83 42 80 3 -2 -23 -60 -56 -128z
m-6121 -172 c7 -13 3 -12 -10 5 -11 14 -21 30 -21 35 0 11 14 -7 31 -40z m35
-97 c99 -158 116 -188 110 -188 -8 0 -117 164 -165 249 -61 108 -26 70 55 -61z
m5967 47 c-3 -9 -8 -14 -10 -11 -3 3 -2 9 2 15 9 16 15 13 8 -4z m-818 -95
c-10 -11 -20 -18 -23 -15 -3 3 -15 -3 -26 -12 -21 -18 -21 -18 -2 4 10 13 22
20 26 18 4 -3 13 2 20 10 7 8 15 15 18 15 3 0 -3 -9 -13 -20z m-4445 0 c-8 -5
-19 -10 -25 -10 -5 0 -3 5 5 10 8 5 20 10 25 10 6 0 3 -5 -5 -10z m157 -108
c65 -65 151 -144 191 -176 39 -32 72 -63 72 -70 0 -15 -159 -484 -160 -471 0
14 42 161 91 314 21 68 39 131 39 140 0 17 -138 161 -155 161 -5 0 13 -24 40
-52 28 -29 13 -17 -32 26 -45 44 -80 82 -78 84 3 3 -27 40 -66 83 -39 44 -68
79 -65 79 3 0 59 -53 123 -118z m5043 94 c0 -3 -4 -8 -10 -11 -5 -3 -10 -1
-10 4 0 6 5 11 10 11 6 0 10 -2 10 -4z m-535 -16 c13 -6 15 -9 5 -9 -8 0 -22
4 -30 9 -18 12 -2 12 25 0z m85 -30 c18 -12 2 -12 -25 0 -13 6 -15 9 -5 9 8 0
22 -4 30 -9z m-5360 -92 c16 -27 28 -48 25 -48 -4 0 -73 100 -89 130 -15 29
34 -35 64 -82z m1765 -136 c-3 -3 -11 0 -18 7 -9 10 -8 11 6 5 10 -3 15 -9 12
-12z m-775 -80 c0 -16 -163 -492 -194 -565 -8 -21 -11 -39 -5 -46 5 -6 2 -5
-7 3 -15 13 -12 26 31 148 85 241 155 452 155 471 0 10 5 15 10 12 6 -3 10
-14 10 -23z m2040 -223 c-34 -9 -370 -11 -370 -1 0 4 89 7 198 8 108 0 186 -3
172 -7z m-1187 -282 c-73 -87 -296 -337 -300 -337 -6 0 142 174 241 283 79 87
113 117 59 54z m2062 -39 l70 -73 -72 70 -73 69 -32 -13 c-51 -21 -249 -79
-293 -85 -22 -3 -2 5 45 18 47 13 123 38 170 54 47 17 92 31 100 31 9 1 47
-32 85 -71z m-1850 40 c13 -5 9 -6 -15 -2 -19 4 -42 10 -50 15 -18 11 34 1 65
-13z m1655 12 c-8 -5 -22 -9 -30 -9 -10 0 -8 3 5 9 27 12 43 12 25 0z m-2859
-23 c-10 -9 -11 -8 -5 6 3 10 9 15 12 12 3 -3 0 -11 -7 -18z m1124 3 c13 -6
15 -9 5 -9 -8 0 -22 4 -30 9 -18 12 -2 12 25 0z m138 -7 c-7 -2 -19 -2 -25 0
-7 3 -2 5 12 5 14 0 19 -2 13 -5z m1514 1 c-3 -3 -12 -4 -19 -1 -8 3 -5 6 6 6
11 1 17 -2 13 -5z m293 -81 c0 -8 -9 0 -50 45 l-45 47 48 -45 c26 -24 47 -45
47 -47z m-1870 67 c20 -6 21 -8 5 -8 -11 0 -29 3 -40 8 -25 11 1 11 35 0z
m1537 4 c-3 -3 -12 -4 -19 -1 -8 3 -5 6 6 6 11 1 17 -2 13 -5z m-1457 -24 c20
-6 21 -8 5 -8 -11 0 -29 3 -40 8 -25 11 1 11 35 0z m57 -16 c-3 -3 -12 -4 -19
-1 -8 3 -5 6 6 6 11 1 17 -2 13 -5z m100 -20 c38 -8 74 -19 81 -23 12 -7 36
-124 46 -221 3 -30 -7 5 -22 77 -16 73 -30 134 -33 136 -2 2 -40 13 -84 25
-95 24 -87 29 12 6z m-1432 -30 c22 -20 31 -31 20 -25 -29 15 -82 60 -70 60 6
0 28 -16 50 -35z m2602 30 c-3 -3 -12 -4 -19 -1 -8 3 -5 6 6 6 11 1 17 -2 13
-5z m-44 -11 c-7 -2 -19 -2 -25 0 -7 3 -2 5 12 5 14 0 19 -2 13 -5z m-2562
-50 c13 -16 12 -17 -3 -4 -10 7 -18 15 -18 17 0 8 8 3 21 -13z m2448 -62 c-7
-39 -14 -69 -17 -67 -2 3 2 37 9 75 7 39 14 69 17 67 2 -3 -2 -37 -9 -75z
m666 59 c10 -11 16 -20 13 -20 -3 0 -13 9 -23 20 -10 11 -16 20 -13 20 3 0 13
-9 23 -20z m-2275 -64 c0 -2 -8 -10 -17 -17 -16 -13 -17 -12 -4 4 13 16 21 21
21 13z m-620 -52 c0 -2 -9 0 -20 6 -11 6 -20 13 -20 16 0 2 9 0 20 -6 11 -6
20 -13 20 -16z m50 -30 c0 -2 -9 0 -20 6 -11 6 -20 13 -20 16 0 2 9 0 20 -6
11 -6 20 -13 20 -16z m2157 -26 c-3 -7 -5 -2 -5 12 0 14 2 19 5 13 2 -7 2 -19
0 -25z m-2007 -53 c0 -3 -22 6 -50 20 -27 14 -50 28 -50 30 0 3 23 -6 50 -20
28 -14 50 -28 50 -30z m270 22 c0 -2 -10 -12 -22 -23 l-23 -19 19 23 c18 21
26 27 26 19z m1727 -19 c-3 -8 -6 -5 -6 6 -1 11 2 17 5 13 3 -3 4 -12 1 -19z
m-840 -50 c-3 -7 -5 -2 -5 12 0 14 2 19 5 13 2 -7 2 -19 0 -25z m1793 -13 c13
-14 21 -25 18 -25 -2 0 -15 11 -28 25 -13 14 -21 25 -18 25 2 0 15 -11 28 -25z
m125 15 c-3 -5 -12 -10 -18 -10 -7 0 -6 4 3 10 19 12 23 12 15 0z m-64 -28
c-7 -2 -18 1 -23 6 -8 8 -4 9 13 5 13 -4 18 -8 10 -11z m-1816 -116 c14 -66
23 -121 21 -123 -4 -4 -38 134 -51 212 -16 86 5 23 30 -89z m772 52 c-3 -8 -6
-5 -6 6 -1 11 2 17 5 13 3 -3 4 -12 1 -19z m40 -20 c-3 -8 -6 -5 -6 6 -1 11 2
17 5 13 3 -3 4 -12 1 -19z m-10 -50 c-3 -8 -6 -5 -6 6 -1 11 2 17 5 13 3 -3 4
-12 1 -19z m-7 -33 c0 -8 -4 -15 -8 -15 -5 0 -9 7 -9 15 0 8 4 15 9 15 4 0 8
-7 8 -15z m-13 -47 c-3 -8 -6 -5 -6 6 -1 11 2 17 5 13 3 -3 4 -12 1 -19z
m-743 -64 c3 -8 2 -12 -4 -9 -6 3 -10 10 -10 16 0 14 7 11 14 -7z"/>
<path d="M14150 10805 c0 -169 2 -306 5 -304 2 3 5 38 6 77 2 74 4 78 48 73 7
-2 10 2 6 8 -3 6 -1 11 5 11 6 0 8 5 4 12 -4 6 -3 8 3 5 13 -8 36 17 25 28 -4
5 -1 5 6 1 7 -4 10 -12 7 -17 -4 -5 -2 -9 4 -9 5 0 11 3 13 8 2 4 15 17 29 30
l26 23 33 -51 c35 -55 54 -70 22 -17 -11 17 -70 122 -131 232 l-111 199 0
-309z"/>
<path d="M14181 10641 c-7 -5 -9 -11 -4 -14 5 -3 15 -2 22 2 7 5 9 11 4 14 -5
3 -15 2 -22 -2z"/>
<path d="M14382 10195 c-1 -13 3 -27 8 -30 6 -3 10 0 10 9 0 8 6 17 13 19 9 4
8 8 -3 16 -22 16 -25 14 -28 -14z"/>
<path d="M14720 10180 c6 -11 13 -20 16 -20 2 0 0 9 -6 20 -6 11 -13 20 -16
20 -2 0 0 -9 6 -20z"/>
<path d="M14384 9805 c0 -77 2 -107 3 -67 2 40 2 103 0 140 -2 37 -3 4 -3 -73z"/>
<path d="M14381 9644 c0 -11 3 -14 6 -6 3 7 2 16 -1 19 -3 4 -6 -2 -5 -13z"/>
<path d="M14381 9604 c0 -11 3 -14 6 -6 3 7 2 16 -1 19 -3 4 -6 -2 -5 -13z"/>
<path d="M14378 9550 c-3 -16 -1 -30 4 -30 4 0 8 14 8 30 0 17 -2 30 -4 30 -2
0 -6 -13 -8 -30z"/>
<path d="M14370 9283 c0 -119 3 -213 7 -209 10 9 10 426 1 426 -5 0 -8 -97 -8
-217z"/>
<path d="M13915 9287 c-3 -6 -7 -58 -8 -115 -2 -78 0 -102 10 -102 10 0 13 27
13 115 0 108 -4 133 -15 102z"/>
<path d="M13820 8810 c-205 -62 -381 -178 -505 -333 -77 -96 -184 -304 -215
-417 -22 -80 -50 -277 -49 -338 0 -33 2 -30 19 28 10 36 21 85 24 110 7 55 10
67 25 105 6 17 21 56 33 87 27 68 37 69 14 1 -44 -132 -60 -245 -59 -413 1
-388 105 -666 330 -881 89 -85 141 -123 228 -166 51 -26 174 -73 190 -73 3 0
6 442 6 983 1 540 5 1043 8 1117 l8 135 1 -182 c1 -114 6 -183 12 -183 6 0 10
-12 10 -27 0 -22 -2 -25 -10 -13 -6 10 -10 -31 -9 -125 0 -96 3 -134 10 -120
8 17 9 16 4 -5 -9 -38 -13 -170 -6 -170 11 0 17 -123 20 -419 0 -79 3 -142 5
-140 9 9 19 1469 10 1468 -5 0 -52 -14 -104 -29z m-38 -1202 c2 -541 2 -985 1
-986 -1 -2 -51 22 -111 52 -81 42 -125 72 -172 118 -207 206 -310 473 -310
808 0 211 29 352 109 525 53 113 90 167 180 254 42 41 70 66 62 55 -7 -10 2
-2 20 18 30 33 190 138 210 138 5 0 10 -442 11 -982z m-503 695 c-12 -21 -27
-42 -32 -48 -11 -11 9 29 31 63 24 37 25 25 1 -15z m-46 -78 c-3 -9 -8 -14
-10 -11 -3 3 -2 9 2 15 9 16 15 13 8 -4z"/>
<path d="M14368 8011 c1 -562 6 -829 13 -836 7 -6 9 -6 8 0 -3 11 11 170 18
200 2 11 6 63 9 115 3 52 7 100 9 105 2 6 4 -235 4 -534 l1 -543 28 7 c54 13
188 72 242 106 199 128 343 315 421 550 86 257 92 533 18 824 -34 133 -98 265
-191 395 -32 45 -33 48 -8 20 49 -55 99 -136 151 -247 26 -55 52 -104 58 -108
7 -4 8 1 5 12 -5 15 -4 14 9 -2 8 -12 23 -45 32 -75 9 -30 18 -59 20 -65 2 -5
4 0 4 11 2 36 -45 185 -89 285 -52 117 -108 202 -200 301 -117 128 -248 204
-465 273 l-100 32 3 -826z m62 613 c0 -8 -4 -14 -10 -14 -5 0 -10 9 -10 21 0
11 5 17 10 14 6 -3 10 -13 10 -21z m351 -51 c13 -16 12 -17 -3 -4 -10 7 -18
15 -18 17 0 8 8 3 21 -13z m-161 -47 c102 -51 163 -94 153 -109 -3 -5 -2 -7 4
-4 17 11 126 -116 180 -208 53 -91 111 -239 128 -325 23 -114 31 -384 15 -491
-35 -243 -160 -475 -334 -621 -54 -46 -229 -148 -252 -148 -2 0 -4 408 -4 908
0 817 4 1042 17 1042 3 0 44 -20 93 -44z m205 14 c10 -11 16 -20 13 -20 -3 0
-13 9 -23 20 -10 11 -16 20 -13 20 3 0 13 -9 23 -20z m-408 -62 c-3 -7 -5 -2
-5 12 0 14 2 19 5 13 2 -7 2 -19 0 -25z m11 -90 c1 -29 -2 -60 -8 -68 -7 -11
-10 -3 -11 30 -1 25 0 49 1 55 1 5 2 17 3 27 3 37 14 6 15 -44z"/>
<path d="M14805 8380 c10 -11 20 -20 23 -20 3 0 -3 9 -13 20 -10 11 -20 20
-23 20 -3 0 3 -9 13 -20z"/>
<path d="M15661 7950 c0 -14 4 -34 9 -45 7 -17 9 -16 9 10 0 17 -4 37 -9 45
-8 12 -10 10 -9 -10z"/>
<path d="M15221 7904 c0 -11 3 -14 6 -6 3 7 2 16 -1 19 -3 4 -6 -2 -5 -13z"/>
<path d="M13911 7344 c0 -11 3 -14 6 -6 3 7 2 16 -1 19 -3 4 -6 -2 -5 -13z"/>
<path d="M15024 6823 c-15 -21 -57 -70 -93 -109 l-66 -70 75 75 c69 69 128
141 117 141 -3 0 -17 -17 -33 -37z"/>
<path d="M13250 6836 c0 -2 8 -10 18 -17 15 -13 16 -12 3 4 -13 16 -21 21 -21
13z"/>
<path d="M13315 6760 c21 -22 41 -40 44 -40 3 0 -13 18 -34 40 -21 22 -41 40
-44 40 -3 0 13 -18 34 -40z"/>
<path d="M13390 6685 c13 -14 26 -25 28 -25 3 0 -5 11 -18 25 -13 14 -26 25
-28 25 -3 0 5 -11 18 -25z"/>
<path d="M14829 6623 c-13 -16 -12 -17 4 -4 9 7 17 15 17 17 0 8 -8 3 -21 -13z"/>
<path d="M14695 6535 c-22 -13 -37 -25 -33 -25 9 0 78 41 78 46 0 6 -3 5 -45
-21z"/>
<path d="M14429 6325 c-1 0 -3 -10 -4 -22 -1 -15 3 -23 13 -23 12 0 12 3 2 15
-10 12 -10 15 3 15 9 0 18 4 21 8 3 6 -22 11 -35 7z"/>
<path d="M14485 6300 c3 -5 8 -10 11 -10 2 0 4 5 4 10 0 6 -5 10 -11 10 -5 0
-7 -4 -4 -10z"/>
<path d="M15300 5410 c0 -5 7 -7 15 -4 8 4 15 8 15 10 0 2 -7 4 -15 4 -8 0
-15 -4 -15 -10z"/>
<path d="M15265 5390 c-3 -6 1 -7 9 -4 18 7 21 14 7 14 -6 0 -13 -4 -16 -10z"/>
<path d="M15111 5330 c-127 -55 -142 -64 -91 -57 37 5 142 49 200 85 57 36 13
24 -109 -28z"/>
<path d="M12141 10390 c0 -8 4 -24 9 -35 5 -13 9 -14 9 -5 0 8 -4 24 -9 35 -5
13 -9 14 -9 5z"/>
<path d="M17125 8901 c-202 -189 -294 -283 -160 -164 101 91 362 342 355 342
-3 0 -90 -80 -195 -178z"/>
<path d="M16945 6913 c-3 -10 -24 -67 -45 -128 -21 -60 -45 -127 -54 -147 -10
-22 -12 -39 -6 -43 5 -3 13 7 16 22 4 15 20 57 36 93 29 65 72 209 65 217 -3
2 -8 -4 -12 -14z"/>
<path d="M11392 6760 c3 -8 13 -39 23 -68 9 -29 19 -51 22 -49 5 5 -33 117
-43 126 -4 3 -5 -1 -2 -9z"/>
<path d="M11440 6625 c0 -5 5 -17 10 -25 5 -8 10 -10 10 -5 0 6 -5 17 -10 25
-5 8 -10 11 -10 5z"/>
<path d="M11340 6545 l-65 -70 65 60 c35 33 66 61 68 62 2 1 2 5 1 10 -2 4
-33 -23 -69 -62z"/>
<path d="M11409 6574 c-8 -10 -59 -58 -114 -107 -55 -50 -146 -135 -202 -189
-96 -93 -102 -100 -91 -123 6 -14 13 -23 15 -21 3 2 0 13 -6 24 -9 17 9 36
142 158 220 201 282 262 276 269 -3 3 -12 -2 -20 -11z"/>
<path d="M12700 6098 c41 -45 50 -53 50 -45 0 2 -21 23 -47 47 l-48 45 45 -47z"/>
<path d="M12780 6025 c13 -14 26 -25 28 -25 3 0 -5 11 -18 25 -13 14 -26 25
-28 25 -3 0 5 -11 18 -25z"/>
<path d="M12840 5975 c13 -14 26 -25 28 -25 3 0 -5 11 -18 25 -13 14 -26 25
-28 25 -3 0 5 -11 18 -25z"/>
<path d="M16211 7954 c0 -11 3 -14 6 -6 3 7 2 16 -1 19 -3 4 -6 -2 -5 -13z"/>
<path d="M15931 6393 c-19 -27 -25 -40 -15 -31 18 16 59 78 51 78 -2 0 -18
-21 -36 -47z"/>
<path d="M15690 6111 c-121 -124 -212 -200 -360 -301 -49 -34 -90 -64 -90 -67
0 -8 190 120 260 175 83 66 332 317 308 311 -1 0 -55 -54 -118 -118z"/>
<path d="M15640 6115 c-24 -25 -42 -45 -39 -45 3 0 25 20 49 45 24 25 42 45
39 45 -3 0 -25 -20 -49 -45z"/>
<path d="M15204 5724 c-18 -14 -18 -15 4 -4 12 6 22 13 22 15 0 8 -5 6 -26
-11z"/>
<path d="M15140 5690 c-9 -6 -10 -10 -3 -10 6 0 15 5 18 10 8 12 4 12 -15 0z"/>
<path d="M12070 5537 c0 -2 15 -16 33 -33 l32 -29 -29 33 c-28 30 -36 37 -36
29z"/>
<path d="M13177 4646 c-4 -10 0 -12 14 -9 27 7 34 23 11 23 -11 0 -22 -6 -25
-14z"/>
</g>
</svg>
